<?xml version="1.0" encoding="utf-8"?>
<!-- Generator: Adobe Illustrator 28.2.0, SVG Export Plug-In . SVG Version: 6.00 Build 0)  -->
<svg version="1.1" id="Layer_1" xmlns="http://www.w3.org/2000/svg" xmlns:xlink="http://www.w3.org/1999/xlink" x="0px" y="0px"
	 viewBox="0 0 500 200" style="enable-background:new 0 0 500 200;" xml:space="preserve">
<style type="text/css">
	.st0{fill:#0071BC;}
</style>
<g>
	<path class="st0" d="M174.99,64.89c2.01,0,3.7,0.69,5.09,2.08c1.38,1.39,2.08,3.08,2.08,5.09c0,2.01-0.69,3.7-2.08,5.09
		c-1.39,1.39-3.08,2.08-5.09,2.08h-36.11c-0.19,1.62-0.43,4.08-0.72,7.38c-0.29,3.3-0.67,7.43-1.15,12.39
		c5.54-3.25,10.41-4.87,14.62-4.87c2.67,0,5.25,0.5,7.74,1.5c2.48,1,4.7,2.53,6.66,4.59c1.96,2.06,3.53,4.61,4.73,7.67
		c1.19,3.06,1.79,6.64,1.79,10.75v0.14c0,4.87-1.05,9.6-3.15,14.19c-2.1,4.59-4.9,8.62-8.38,12.11c-3.49,3.49-7.55,6.28-12.18,8.38
		c-4.63,2.1-9.53,3.15-14.69,3.15c-5.64,0-10.96-1.12-15.98-3.37s-9.43-5.3-13.25-9.17c-3.82-3.87-6.83-8.4-9.03-13.61
		c-2.2-5.21-3.3-10.72-3.3-16.55c0-1.24,0.07-2.96,0.22-5.16c0.14-2.2,0.52-4.39,1.15-6.59c0.62-2.2,1.53-4.11,2.72-5.73
		c1.19-1.62,2.89-2.44,5.09-2.44h0.29c1.43,0,2.94,0.6,4.51,1.79c1.58,1.19,2.36,2.88,2.36,5.07v0.57c0,0.67-0.62,3.48-1.86,8.43
		c-0.1,0.48-0.14,1.24-0.14,2.29v2.86c0,3.62,0.76,7.07,2.29,10.36c1.53,3.29,3.56,6.17,6.09,8.64c2.53,2.48,5.44,4.48,8.74,6
		c3.3,1.52,6.71,2.29,10.24,2.29c2.67,0,5.44-0.57,8.31-1.71c2.87-1.14,5.45-2.78,7.74-4.92c2.29-2.14,4.18-4.66,5.66-7.56
		c1.48-2.9,2.22-6.16,2.22-9.78c-0.19-2.76-0.77-5.09-1.72-6.99c-0.96-1.9-2.39-2.86-4.3-2.86h-0.57c-2.58,0-6.26,1.96-11.03,5.87
		c-4.49,4.59-7.93,6.88-10.32,6.88h-0.57c-2.2,0-4.04-0.79-5.52-2.36c-1.48-1.58-2.22-4.08-2.22-7.52c0-1.15,0.22-4.39,0.64-9.74
		c0.43-5.35,1.03-12.8,1.79-22.35H90.16c-2.01,0-3.7-0.69-5.09-2.08C83.69,75.76,83,74.07,83,72.06c0-2.01,0.69-3.7,2.08-5.09
		c1.39-1.38,3.08-2.08,5.09-2.08h62.47c-0.48-1.62-0.98-2.89-1.5-3.8c-0.53-0.91-1.2-1.58-2.01-2.01c-0.81-0.43-1.86-0.67-3.15-0.72
		c-1.29-0.05-2.84-0.07-4.66-0.07l-16.91,0.72c-4.78,0-9.17-0.48-13.18-1.43c-4.01-0.95-7.45-2.34-10.32-4.15
		c-2.87-1.81-5.11-4.06-6.73-6.73c-1.63-2.67-2.44-5.73-2.44-9.17c0-2.2,0.57-4.06,1.72-5.59c1.15-1.53,2.96-2.29,5.45-2.29
		c1.81,0,3.2,0.5,4.16,1.5c0.95,1,1.67,2.1,2.15,3.3c0.48,1.2,0.81,2.34,1,3.44c0.19,1.1,0.52,1.74,1,1.93
		c2.58,3.25,7.93,4.87,16.05,4.87l18.77-0.72c3.53,0,6.83,0.48,9.89,1.43c3.06,0.96,5.68,2.32,7.88,4.08
		c2.2,1.77,3.92,3.96,5.16,6.59c1.24,2.63,1.86,5.57,1.86,8.81H174.99z"/>
	<path class="st0" d="M237.32,79.22v67.92c0,1.34-0.57,2.82-1.7,4.44c-1.13,1.62-2.84,2.44-5.11,2.44c-1.89,0-3.62-0.67-5.18-2.01
		c-1.56-1.34-2.34-3.39-2.34-6.16l-0.14-31.38c-1.43,0.67-3.2,1.96-5.3,3.87l-3.87,5.3c-1.43,1.43-2.68,2.56-3.73,3.37
		c-1.05,0.81-2.08,1.43-3.08,1.86c-1,0.43-2.1,0.72-3.3,0.86c-1.2,0.14-2.65,0.22-4.37,0.22c-1.24,0-2.58-0.72-4.01-2.15
		c-1.43-1.43-2.15-3.3-2.15-5.59c0-3.73,2.72-6.02,8.17-6.88c2.01-0.95,3.01-2.91,3.01-5.87c0-0.86-0.38-2.34-1.15-4.44h-0.14
		c-3.15,5.54-7.26,8.31-12.32,8.31c-1.82,0-3.54-0.47-5.16-1.43c-1.63-0.95-3.03-2.26-4.23-3.93c-1.2-1.67-2.13-3.57-2.79-5.71
		c-0.67-2.14-1-4.4-1-6.79c0-3.42,0.84-6.78,2.51-10.07c1.67-3.29,3.87-6.22,6.59-8.79c2.72-2.57,5.83-4.64,9.31-6.21
		c3.49-1.57,7.05-2.36,10.69-2.36c5.29,0,10.78,1.15,16.46,3.44c0-1.34,0.55-2.72,1.65-4.15c1.1-1.43,2.89-2.29,5.37-2.58
		c0.48,0.1,1.81,0.14,4.01,0.14h9.03c2.01,0,3.7,0.69,5.09,2.08c1.38,1.39,2.08,3.08,2.08,5.09c0,2.01-0.7,3.7-2.1,5.09
		c-1.4,1.39-3.11,2.08-5.14,2.08H237.32z M217.26,101.15c2.96-1.15,4.87-1.72,5.73-1.72V88.68c-5.35-4.2-10.75-6.31-16.19-6.31
		c-2.01,0-3.89,0.43-5.66,1.29c-1.77,0.86-3.32,1.93-4.66,3.22c-1.34,1.29-2.39,2.65-3.15,4.08c-0.77,1.43-1.15,2.77-1.15,4.01v0.29
		c1.43-1.91,3.06-3.41,4.87-4.51c1.81-1.1,3.82-1.65,6.02-1.65c5.83,0,10.41,3.73,13.76,11.18L217.26,101.15z"/>
	<path d="M304.95,64.89c2.01,0,3.7,0.69,5.09,2.08c1.38,1.39,2.08,3.08,2.08,5.09c0,2.01-0.69,3.7-2.08,5.09
		c-1.39,1.39-3.08,2.08-5.09,2.08h-5.59v67.63c0,1.63-0.72,3.22-2.15,4.8c-1.43,1.58-3.2,2.36-5.3,2.36c-1.34,0-2.77-0.52-4.3-1.58
		c-1.53-1.05-2.99-2.22-4.37-3.51c-1.39-1.29-2.6-2.51-3.65-3.65c-1.05-1.15-1.77-1.86-2.15-2.15c-3.54-2.39-6.73-4.35-9.6-5.88
		l-13.9-5.87c-5.73-3.15-8.6-6.97-8.6-11.46v-0.57c0-2.1,0.57-4.35,1.72-6.73c1.15-2.39,2.89-5.13,5.23-8.24
		c2.34-3.1,5.32-6.71,8.96-10.82c3.63-4.11,7.93-8.88,12.9-14.33h-31.24c-2.01,0-3.7-0.69-5.09-2.08c-1.38-1.38-2.08-3.08-2.08-5.09
		c0-2.01,0.69-3.7,2.08-5.09c1.39-1.38,3.08-2.08,5.09-2.08H304.95z M260.25,118.48c0.19,0.1,1.19,0.5,3.01,1.22
		c1.81,0.72,3.96,1.65,6.45,2.79c2.48,1.15,5.06,2.41,7.74,3.8c2.67,1.38,5.02,2.84,7.02,4.37V89.25c-3.25,3.44-6.26,6.76-9.03,9.96
		c-2.77,3.2-5.23,6.09-7.38,8.67c-2.15,2.58-3.89,4.78-5.23,6.59C261.49,116.29,260.63,117.62,260.25,118.48z"/>
	<path d="M291.34,138.69c0.86,0,1.74,0.17,2.65,0.5c0.91,0.34,1.77,0.81,2.58,1.43c0.81,0.62,1.48,1.41,2.01,2.36
		c0.53,0.96,0.79,2.06,0.79,3.3v0.43c0,1.62-0.45,3.06-1.36,4.3c-0.91,1.24-2.32,2.44-4.23,3.58c-3.25,2.01-6.18,3.96-8.81,5.88
		c-2.63,1.91-5.04,3.58-7.24,5.02v0.14c2.39,0.86,4.87,1.91,7.45,3.15c2.58,1.24,4.92,2.7,7.02,4.37c2.1,1.67,3.85,3.58,5.23,5.73
		c1.38,2.15,2.08,4.61,2.08,7.38c0,3.34-0.74,6.23-2.22,8.67c-1.48,2.44-3.56,3.65-6.23,3.65h-0.43c-0.76,0-1.6-0.14-2.51-0.43
		c-0.91-0.29-1.74-0.74-2.51-1.36c-0.76-0.62-1.41-1.41-1.93-2.36c-0.52-0.96-0.79-2.06-0.79-3.3v-0.72c0-0.48,0.29-1.67,0.86-3.58
		c-0.29-0.57-0.67-1.1-1.15-1.58c-0.48-0.48-1.29-1-2.44-1.58c-1.15-0.57-2.72-1.27-4.73-2.08c-2.01-0.81-4.73-1.84-8.17-3.08
		c-6.78-2.49-10.17-6.07-10.17-10.75v-0.57c0-3.54,1.63-6.64,4.87-9.31c2.77-2.2,5.71-4.42,8.81-6.66c3.11-2.24,6.02-4.27,8.74-6.09
		c2.72-1.81,5.04-3.32,6.95-4.51c1.91-1.19,3.11-1.79,3.58-1.79C290.53,138.74,290.96,138.69,291.34,138.69z"/>
	<path d="M330.65,64.89c2.03,0,3.75,0.69,5.15,2.08c1.4,1.39,2.1,3.08,2.1,5.09c0,2.01-0.7,3.7-2.1,5.09
		c-1.4,1.39-3.11,2.08-5.14,2.08h-5.65v84.54c0,2.1-0.6,3.92-1.79,5.44c-1.19,1.53-2.94,2.29-5.23,2.29h-0.29
		c-1.62,0-3.2-0.57-4.73-1.72c-1.53-1.15-2.29-2.91-2.29-5.3V79.22h-5.65c-2.03,0-3.74-0.69-5.14-2.08c-1.4-1.38-2.1-3.08-2.1-5.09
		c0-2.01,0.7-3.7,2.1-5.09c1.4-1.38,3.12-2.08,5.14-2.08h5.65v-0.14c0-0.67-2.77-1.62-8.31-2.87c-15.19-3.15-24.79-5.92-28.8-8.31
		c-3.63-2.2-6.16-4.49-7.6-6.88c-1.43-2.39-2.15-5.3-2.15-8.74v-0.14c0-2.2,0.72-4.54,2.15-7.02c1.43-2.48,3.32-4.94,5.66-7.38
		c2.34-2.44,4.94-4.7,7.81-6.81c2.87-2.1,5.73-3.82,8.6-5.16c13.95-6.68,27.59-10.03,40.94-10.03c6.1,0,11.94,0.74,17.51,2.22
		c5.58,1.48,10.51,3.63,14.8,6.45c4.29,2.82,7.72,6.21,10.29,10.17c2.57,3.97,3.86,8.43,3.86,13.4c0,2.48-0.55,5.21-1.65,8.17
		c-1.1,2.96-2.63,5.73-4.59,8.31c-1.96,2.58-4.28,4.75-6.95,6.52c-2.68,1.77-5.64,2.65-8.88,2.65c-1.43,0-2.94-0.55-4.51-1.65
		c-1.58-1.1-2.36-2.74-2.36-4.94v-1c0-3.06,1.81-5.25,5.44-6.59c0.67,0,1.51-0.26,2.51-0.79c1-0.52,1.98-1.29,2.94-2.29
		c0.95-1,1.79-2.2,2.51-3.58c0.72-1.38,1.12-2.94,1.22-4.66v-0.86c0-2.29-0.88-4.46-2.64-6.52c-1.76-2.05-4.07-3.84-6.92-5.37
		c-2.85-1.53-6.09-2.75-9.7-3.65c-3.62-0.91-7.23-1.36-10.85-1.36h-3.14c-3.43,0-7.32,0.38-11.67,1.15
		c-4.35,0.77-8.72,1.91-13.11,3.44c-4.39,1.53-8.6,3.46-12.61,5.8c-4.01,2.34-7.35,5.04-10.03,8.1c-1.53,1.82-2.29,3.3-2.29,4.44
		c0,1.53,4.01,3.35,12.04,5.44c7.26,1.63,13.21,3.06,17.84,4.3c4.63,1.24,8.29,2.58,10.96,4.01c2.67,1.43,4.49,3.11,5.44,5.02
		c0.95,1.91,1.43,4.3,1.43,7.16H330.65z"/>
	<path d="M409.84,64.89c2.01,0,3.7,0.69,5.09,2.08c1.38,1.39,2.08,3.08,2.08,5.09c0,2.01-0.69,3.7-2.08,5.09
		c-1.39,1.39-3.08,2.08-5.09,2.08h-23.79c1.15,0.67,2.2,1.43,3.15,2.29c2.58,2.2,4.61,4.78,6.09,7.74c1.48,2.96,2.22,6.16,2.22,9.6
		c0,2.01-0.07,3.72-0.21,5.16c-0.14,1.43-0.38,2.75-0.72,3.94c-0.34,1.2-0.84,2.32-1.5,3.37c-0.67,1.05-1.48,2.15-2.44,3.3
		c2.1,0.38,4.06,1.17,5.88,2.36c1.81,1.2,3.39,2.63,4.73,4.3c1.34,1.67,2.36,3.44,3.08,5.3c0.72,1.86,1.08,3.7,1.08,5.52
		c0,3.63-1.08,7.05-3.22,10.24c-2.15,3.2-4.99,6.04-8.53,8.53c-3.54,2.49-7.55,4.44-12.04,5.87c-4.49,1.43-9.08,2.15-13.76,2.15
		c-4.78,0-9.38-0.72-13.83-2.15c-4.44-1.43-8.38-3.44-11.82-6.02c-3.44-2.58-6.19-5.59-8.24-9.03c-2.06-3.44-3.08-7.16-3.08-11.18
		c0-1.24,0.14-2.82,0.43-4.73c0.29-1.91,0.79-3.77,1.5-5.59c0.72-1.81,1.67-3.37,2.87-4.66c1.19-1.29,2.65-1.93,4.37-1.93
		c2.96,0,5.02,1.77,6.16,5.3l0.14,1.29c0,0.19-0.17,0.72-0.5,1.58c-0.34,0.86-0.67,1.82-1,2.87c-0.34,1.05-0.67,2.08-1,3.08
		c-0.34,1-0.5,1.79-0.5,2.36c0,1.91,0.57,3.82,1.72,5.73c1.15,1.91,2.79,3.61,4.94,5.09c2.15,1.48,4.7,2.7,7.66,3.65
		c2.96,0.96,6.26,1.43,9.89,1.43c2.48,0,5.21-0.38,8.17-1.15c2.96-0.76,5.71-1.74,8.24-2.94c2.53-1.19,4.63-2.56,6.3-4.08
		c1.67-1.53,2.51-3.06,2.51-4.59v-1.15c0-0.67-0.29-1.43-0.86-2.29c-0.57-0.86-1.39-1.67-2.44-2.44c-1.05-0.76-2.37-1.43-3.94-2.01
		c-1.58-0.57-3.37-0.86-5.37-0.86c-0.57,0-1.29,0.12-2.15,0.36c-0.86,0.24-1.7,0.57-2.51,1c-0.81,0.43-1.5,0.98-2.08,1.65
		c-0.57,0.67-0.86,1.38-0.86,2.15c0,0.67,0.26,1.24,0.79,1.72c0.52,0.48,1.1,1,1.72,1.58c0.62,0.57,1.19,1.24,1.72,2.01
		c0.52,0.77,0.79,1.72,0.79,2.87c0,3.25-1.72,5.35-5.16,6.3l-1,0.14c-1.05,0-2.25-0.36-3.58-1.08c-1.34-0.72-2.58-1.74-3.73-3.08
		c-1.15-1.34-2.1-2.94-2.87-4.8c-0.77-1.86-1.15-3.94-1.15-6.23c0-5.06,2.58-9.6,7.74-13.61l7.59-3.87c5.06-3.34,7.6-7.26,7.6-11.75
		c0-1.81-0.38-3.49-1.15-5.01c-0.77-1.53-1.79-2.87-3.08-4.01c-1.29-1.15-2.84-2.03-4.66-2.65c-1.82-0.62-3.73-0.93-5.73-0.93
		c-3.92,0-7.64,1.1-11.18,3.3l2.15-0.29c1.43,0,2.87,0.26,4.3,0.79c1.43,0.53,2.77,1.31,4.01,2.36c1.24,1.05,2.24,2.34,3.01,3.87
		c0.76,1.53,1.15,3.3,1.15,5.3c0,1.34-0.29,2.75-0.86,4.23c-0.57,1.48-1.39,2.82-2.44,4.01c-1.05,1.2-2.36,2.17-3.94,2.94
		c-1.58,0.77-3.37,1.15-5.37,1.15c-2.2,0-4.35-0.6-6.45-1.79c-2.1-1.19-3.99-2.74-5.66-4.66c-1.67-1.91-3.03-4.06-4.08-6.45
		c-1.05-2.39-1.58-4.78-1.58-7.16c0-2.58,0.69-5.11,2.08-7.6c1.38-2.48,3.27-4.63,5.66-6.45c0.67-0.57,1.38-1.1,2.15-1.58h-22.93
		c-2.01,0-3.7-0.69-5.09-2.08c-1.38-1.38-2.08-3.08-2.08-5.09c0-2.01,0.69-3.7,2.08-5.09c1.38-1.38,3.08-2.08,5.09-2.08H409.84z"/>
</g>
</svg>
